# xmcd
#
# Track frame offsets:
# 150
# 45211
# 138820
# 173626
#
# Disc length: 2946 seconds
#
#
# Revision: 0
# Processed by: cddbd v1.5.2PL0 Copyright (c) Steve Scherf et al.
# Submitted via: FreeRIP 2.943 
#
DISCID=230b8004
DTITLE=fire witch - liars!
DYEAR=2010
DGENRE=Avantgarde
TTITLE0=i spit lies
TTITLE1=i spit lies
TTITLE2=critter-kritta
TTITLE3=critter-kritta
EXTD=reissue of i spit lies and critter/kritter cd-r eps\nwer011
EXTT0=
EXTT1=
EXTT2=
EXTT3=
PLAYORDER=
